<?xml version="1.0" standalone="no"?>
<!DOCTYPE svg PUBLIC "-//W3C//DTD SVG 20010904//EN"
 "http://www.w3.org/TR/2001/REC-SVG-20010904/DTD/svg10.dtd">
<svg version="1.0" xmlns="http://www.w3.org/2000/svg"
 width="640.000000pt" height="640.000000pt" viewBox="0 0 640.000000 640.000000"
 preserveAspectRatio="xMidYMid meet">
<metadata>
Created by potrace 1.11, written by Peter Selinger 2001-2013
</metadata>
<g transform="translate(0.000000,640.000000) scale(0.100000,-0.100000)"
fill="#000000" stroke="none">
<path d="M0 3200 l0 -3200 3200 0 3200 0 0 3200 0 3200 -3200 0 -3200 0 0
-3200z m3325 2896 c33 -10 65 -19 70 -21 6 -1 -21 -1 -60 1 -43 2 -74 9 -80
17 -5 7 -20 16 -33 19 -19 5 -22 3 -17 -12 3 -10 1 -21 -5 -25 -6 -4 -16 -19
-22 -33 -6 -15 -12 -21 -15 -15 -2 7 2 22 11 34 14 20 14 24 -2 35 -15 11 -15
13 10 23 14 5 29 15 33 21 5 8 14 6 29 -8 11 -10 48 -27 81 -36z m-279 -4 c11
-15 38 -14 77 3 10 4 17 3 17 -3 0 -6 -16 -14 -36 -18 -33 -6 -35 -8 -29 -38
9 -42 25 -56 66 -61 67 -7 199 -34 217 -44 16 -9 16 -10 0 -16 -28 -11 -58 -9
-118 7 -104 29 -120 30 -120 8 0 -11 -4 -20 -9 -20 -5 0 -7 8 -4 19 5 20 -18
42 -25 23 -2 -7 -7 -12 -12 -12 -4 0 -24 -16 -43 -35 -19 -19 -42 -35 -51 -35
-10 0 -16 -9 -17 -22 -1 -16 -3 -18 -6 -7 -2 10 -19 20 -40 24 -22 4 -50 20
-71 41 -19 19 -39 34 -45 34 -25 0 13 19 101 50 51 18 95 37 98 42 14 22 -32
17 -105 -11 -44 -17 -83 -31 -86 -31 -10 0 -5 42 10 70 42 81 180 100 231 32z
m277 -43 c10 -11 16 -23 14 -26 -6 -6 -47 28 -47 39 0 14 15 8 33 -13z m122
11 c3 -5 -1 -10 -9 -10 -9 0 -16 5 -16 10 0 6 4 10 9 10 6 0 13 -4 16 -10z
m-45 -103 c0 -13 -29 12 -42 37 -10 19 -8 18 16 -3 14 -14 26 -29 26 -34z
m-755 -67 c-3 -5 -12 -10 -18 -10 -7 0 -6 4 3 10 19 12 23 12 15 0z m922 -16
c-3 -3 -12 -4 -19 -1 -8 3 -5 6 6 6 11 1 17 -2 13 -5z m66 -11 c-7 -2 -19 -2
-25 0 -7 3 -2 5 12 5 14 0 19 -2 13 -5z m60 -10 c-7 -2 -21 -2 -30 0 -10 3 -4
5 12 5 17 0 24 -2 18 -5z m44 -9 c-3 -3 -12 -4 -19 -1 -8 3 -5 6 6 6 11 1 17
-2 13 -5z m88 -14 c13 -6 15 -9 5 -9 -8 0 -22 4 -30 9 -18 12 -2 12 25 0z
m948 -24 c18 -7 42 -24 54 -37 25 -29 56 -99 42 -99 -5 0 -9 -7 -9 -15 0 -18
1 -18 -52 -1 -24 8 -90 29 -148 46 -58 18 -107 34 -109 36 -8 8 44 57 74 70
39 17 107 18 148 0z m-786 -12 c-3 -3 -12 -4 -19 -1 -8 3 -5 6 6 6 11 1 17 -2
13 -5z m50 -10 c-3 -3 -12 -4 -19 -1 -8 3 -5 6 6 6 11 1 17 -2 13 -5z m100
-20 c-3 -3 -12 -4 -19 -1 -8 3 -5 6 6 6 11 1 17 -2 13 -5z m56 -11 c-7 -2 -19
-2 -25 0 -7 3 -2 5 12 5 14 0 19 -2 13 -5z m44 -9 c-3 -3 -12 -4 -19 -1 -8 3
-5 6 6 6 11 1 17 -2 13 -5z m40 -10 c-3 -3 -12 -4 -19 -1 -8 3 -5 6 6 6 11 1
17 -2 13 -5z m56 -11 c-7 -2 -19 -2 -25 0 -7 3 -2 5 12 5 14 0 19 -2 13 -5z
m-2478 -39 c14 -9 25 -19 25 -23 0 -8 -88 -41 -107 -41 -22 0 -15 48 9 64 28
20 43 20 73 0z m2650 -2 c-3 -3 -11 0 -18 7 -9 10 -8 11 6 5 10 -3 15 -9 12
-12z m145 -11 c221 -68 217 -66 195 -78 -11 -5 -71 -27 -133 -48 l-114 -38
-32 34 c-25 26 -33 44 -35 78 -1 25 -4 48 -7 53 -7 11 5 28 19 28 7 0 55 -13
107 -29z m-1653 -63 c-3 -7 -5 -2 -5 12 0 14 2 19 5 13 2 -7 2 -19 0 -25z
m-1121 -4 c-3 -9 -6 -19 -6 -23 0 -5 -12 -6 -27 -4 -55 9 -59 15 -23 28 48 19
63 18 56 -1z m24 -4 c0 -5 -5 -10 -11 -10 -5 0 -7 5 -4 10 3 6 8 10 11 10 2 0
4 -4 4 -10z m35 -20 c3 -5 -1 -10 -9 -10 -9 0 -16 5 -16 10 0 6 4 10 9 10 6 0
13 -4 16 -10z m-201 -22 c-3 -7 -17 -22 -32 -32 -27 -19 -27 -19 2 12 32 35
38 38 30 20z m3106 -20 c0 -20 -95 -62 -142 -62 -49 -1 -41 18 -68 -161 -12
-79 -29 -133 -29 -90 -1 22 46 255 51 261 8 8 155 62 171 63 9 1 17 -5 17 -11z
m-2826 -4 c9 -3 14 -9 11 -13 -2 -4 12 -13 31 -20 19 -7 32 -17 29 -22 -3 -5
1 -6 9 -3 9 3 16 1 16 -5 0 -6 -9 -11 -20 -11 -11 0 -20 4 -20 8 0 5 -16 17
-35 28 -44 23 -60 53 -21 38z m1005 -34 c0 -10 -3 -8 -9 5 -12 27 -12 43 0 25
5 -8 9 -22 9 -30z m-1092 -43 c-2 -6 -11 4 -20 22 -24 48 -21 63 4 22 11 -18
18 -38 16 -44z m-297 -2 c-18 -19 -35 -33 -38 -31 -4 4 59 65 67 66 3 0 -10
-16 -29 -35z m2720 10 c0 -2 -10 -10 -22 -16 -21 -11 -22 -11 -9 4 13 16 31
23 31 12z m-2182 -31 c19 -3 42 -25 41 -38 0 -7 -2 -6 -6 2 -2 6 -11 12 -19
12 -8 0 -14 5 -14 10 0 6 -3 9 -7 9 -19 -3 -33 2 -33 12 0 6 5 7 13 2 6 -4 18
-8 25 -9z m-221 -26 c-3 -8 -6 -5 -6 6 -1 11 2 17 5 13 3 -3 4 -12 1 -19z m40
-74 c-9 -9 -38 47 -31 58 5 8 13 0 21 -21 8 -18 12 -35 10 -37z m263 46 c8 -5
11 -10 5 -10 -5 0 -17 5 -25 10 -8 5 -10 10 -5 10 6 0 17 -5 25 -10z m2785
-30 c10 -11 16 -20 13 -20 -3 0 -13 9 -23 20 -10 11 -16 20 -13 20 3 0 13 -9
23 -20z m-3516 -2 c-2 -2 -17 -14 -34 -28 l-30 -25 29 32 c16 18 32 31 34 28
3 -3 3 -6 1 -7z m2606 -8 c3 -5 -1 -10 -10 -10 -9 0 -13 5 -10 10 3 6 8 10 10
10 2 0 7 -4 10 -10z m-1775 -20 c14 -11 20 -20 14 -20 -6 0 -17 6 -24 14 -6 8
-21 17 -33 19 -20 4 -20 4 -2 5 11 1 31 -7 45 -18z m2731 -7 c13 -16 12 -17
-3 -4 -17 13 -22 21 -14 21 2 0 10 -8 17 -17z m-3064 -19 c12 -26 12 -26 -7
-9 -20 18 -26 35 -12 35 4 0 12 -12 19 -26z m396 -8 c30 -23 20 -39 -12 -20
-17 10 -28 21 -25 26 7 11 16 10 37 -6z m1610 -5 c-4 -3 -10 -10 -14 -14 -3
-4 -11 -2 -18 6 -9 12 -7 15 14 15 14 0 22 -3 18 -7z m1117 -26 c19 -19 32
-35 29 -35 -3 0 -20 16 -39 35 -19 19 -32 35 -29 35 3 0 20 -16 39 -35z
m-3740 -20 c-13 -14 -27 -25 -32 -25 -9 0 42 49 51 50 3 0 -6 -11 -19 -25z
m1667 3 c-3 -8 -6 -5 -6 6 -1 11 2 17 5 13 3 -3 4 -12 1 -19z m903 7 c-13 -16
-160 -88 -166 -82 -2 2 27 21 64 42 37 22 69 43 70 47 2 4 13 8 24 8 17 0 18
-2 8 -15z m-1495 -5 c-3 -5 1 -10 9 -10 8 0 17 -4 21 -10 3 -5 -8 -5 -26 2
-23 8 -27 13 -17 19 17 11 20 11 13 -1z m-420 -36 c15 -37 19 -51 10 -43 -8 9
-35 79 -30 79 2 0 12 -16 20 -36z m1022 -16 c-3 -8 -6 -5 -6 6 -1 11 2 17 5
13 3 -3 4 -12 1 -19z m-512 -8 c3 -6 -1 -7 -9 -4 -18 7 -21 14 -7 14 6 0 13
-4 16 -10z m2714 -47 c2 -2 2 -5 -1 -8 -2 -3 -18 10 -34 28 l-29 32 30 -25
c17 -14 32 -26 34 -27z m-2664 17 c7 0 15 -7 19 -15 3 -8 12 -12 21 -9 10 4
15 0 15 -12 0 -16 -2 -17 -10 -4 -5 8 -10 11 -10 7 0 -5 -13 1 -30 13 -16 12
-30 27 -29 33 0 9 2 8 6 0 2 -7 11 -13 18 -13z m472 -2 c-3 -8 -6 -5 -6 6 -1
11 2 17 5 13 3 -3 4 -12 1 -19z m-1000 -20 c-3 -8 -6 -5 -6 6 -1 11 2 17 5 13
3 -3 4 -12 1 -19z m-817 -11 c0 -2 -12 -14 -27 -28 l-28 -24 24 28 c23 25 31
32 31 24z m840 -7 c0 -5 -5 -10 -11 -10 -5 0 -7 5 -4 10 3 6 8 10 11 10 2 0 4
-4 4 -10z m987 -42 c-3 -8 -6 -5 -6 6 -1 11 2 17 5 13 3 -3 4 -12 1 -19z
m-357 8 c0 -3 -4 -8 -10 -11 -5 -3 -10 -1 -10 4 0 6 5 11 10 11 6 0 10 -2 10
-4z m25 -16 c3 -5 1 -10 -4 -10 -6 0 -11 5 -11 10 0 6 2 10 4 10 3 0 8 -4 11
-10z m-621 -35 l17 -30 -20 24 c-12 13 -21 28 -21 34 0 12 0 11 24 -28z m3246
0 c19 -19 32 -35 29 -35 -3 0 -20 16 -39 35 -19 19 -32 35 -29 35 3 0 20 -16
39 -35z m-4190 22 c0 -2 -15 -16 -32 -33 l-33 -29 29 33 c28 30 36 37 36 29z
m1614 -22 c-5 -12 -10 -13 -20 -4 -19 15 -18 19 6 19 13 0 18 -5 14 -15z m26
-15 c0 -5 -2 -10 -4 -10 -3 0 -8 5 -11 10 -3 6 -1 10 4 10 6 0 11 -4 11 -10z
m17 -22 c-3 -8 -6 -5 -6 6 -1 11 2 17 5 13 3 -3 4 -12 1 -19z m683 18 c0 -2
-7 -7 -16 -10 -8 -3 -12 -2 -9 4 6 10 25 14 25 6z m-2419 -39 c-10 -9 -11 -8
-5 6 3 10 9 15 12 12 3 -3 0 -11 -7 -18z m1847 -124 c53 -125 117 -225 199
-310 l68 -71 136 6 c76 2 186 -1 248 -7 104 -11 115 -10 144 7 52 30 126 180
141 285 4 26 11 47 16 47 21 0 97 -103 136 -185 77 -162 125 -276 142 -339 21
-79 23 -375 3 -489 -8 -42 -11 -80 -8 -83 3 -3 18 1 34 9 84 46 245 77 403 77
183 0 230 -22 218 -101 -2 -16 -11 -25 -25 -27 -26 -4 -31 16 -10 37 21 22
-25 49 -100 57 -150 16 -361 -22 -506 -91 -28 -13 -37 -25 -46 -60 -6 -24 -11
-48 -11 -53 0 -5 40 -7 94 -4 157 8 281 -24 399 -102 55 -37 74 -66 41 -66 -9
0 -33 13 -53 28 -33 26 -127 72 -176 86 -63 18 -170 25 -237 16 -40 -6 -76
-14 -80 -18 -3 -4 -9 -23 -13 -43 l-7 -36 68 -7 c81 -8 190 -45 261 -88 63
-38 143 -113 143 -133 0 -27 -26 -15 -86 40 -95 87 -232 145 -345 145 -46 0
-46 0 -53 -37 -10 -66 -7 -230 10 -407 35 -372 -10 -691 -113 -798 -22 -23
-36 -28 -73 -28 -52 0 -110 17 -110 31 0 6 33 58 73 117 95 137 140 219 133
237 -10 27 -35 4 -75 -68 -21 -40 -69 -114 -106 -165 -56 -79 -68 -103 -74
-149 -5 -30 -14 -59 -22 -64 -28 -17 -79 -7 -79 16 0 21 -23 24 -52 7 -22 -13
-32 -13 -53 -4 -24 11 -26 17 -23 59 3 41 0 48 -17 51 -26 5 -52 28 -58 54 -8
30 31 64 85 72 82 12 106 63 107 224 1 65 -1 73 -16 70 -19 -3 -30 -57 -32
-153 -1 -68 -19 -91 -77 -100 -33 -5 -56 -16 -77 -36 -29 -30 -30 -30 -66 -14
-62 28 -66 31 -69 67 -2 19 6 80 17 134 11 56 16 103 11 108 -23 23 -37 -7
-58 -122 -21 -111 -22 -124 -8 -157 11 -25 26 -40 53 -51 53 -22 73 -43 73
-74 0 -34 -20 -52 -68 -59 -35 -6 -37 -8 -34 -43 3 -29 -1 -39 -18 -48 -25
-13 -51 -6 -75 20 -17 19 -18 19 -45 -2 -25 -18 -31 -19 -56 -6 -23 10 -30 21
-32 52 -2 21 2 52 9 68 10 24 9 31 -4 46 -17 19 -86 215 -107 300 -9 40 -16
52 -29 50 -12 -3 -15 -13 -13 -38 3 -44 43 -176 81 -269 21 -52 27 -79 22
-103 -6 -31 -13 -35 -101 -70 -52 -20 -111 -37 -131 -37 -39 -1 -48 11 -63 82
-6 25 -10 27 -56 27 -67 0 -96 -27 -205 -193 -71 -107 -114 -158 -229 -272
-87 -87 -172 -161 -221 -193 -141 -92 -297 -125 -485 -103 -320 39 -483 140
-520 324 -28 140 43 348 160 466 81 82 134 106 240 106 72 0 93 -4 140 -27 60
-29 133 -96 157 -142 8 -16 15 -48 16 -73 0 -37 -5 -49 -33 -78 -61 -63 -118
-57 -191 20 -51 54 -86 75 -127 75 -88 0 -169 -141 -148 -255 9 -47 75 -119
139 -152 121 -61 284 -79 398 -43 145 44 255 140 446 383 141 180 190 264 238
410 53 160 65 246 75 562 5 154 12 300 16 324 l7 44 -49 -8 c-56 -8 -67 -13
-59 -26 4 -5 -6 -6 -22 -3 -18 3 -53 -4 -98 -21 -85 -33 -125 -41 -125 -26 0
12 57 43 115 61 22 7 47 19 56 26 9 8 18 11 21 8 3 -3 42 2 86 12 l79 17 10
74 c6 51 6 76 -2 81 -5 4 -64 9 -129 12 -81 3 -121 9 -123 17 -7 20 43 26 158
19 124 -7 116 -13 121 89 l3 50 -85 22 c-119 32 -282 53 -405 53 -103 0 -105
0 -105 -23 0 -12 -8 -46 -18 -75 -22 -60 -73 -106 -136 -123 -22 -5 -45 -11
-51 -13 -5 -2 -34 6 -64 17 -88 32 -141 106 -141 197 0 111 86 190 206 190 54
0 68 -4 117 -37 31 -20 54 -39 53 -42 -2 -3 0 -16 5 -28 8 -22 14 -23 99 -23
152 0 361 -31 515 -75 19 -6 22 5 48 203 35 264 55 358 107 507 72 207 139
408 151 455 10 38 13 42 20 25 5 -11 26 -61 47 -112z m501 124 c-2 -1 -13 -9
-24 -17 -19 -14 -19 -14 -6 3 7 9 18 17 24 17 6 0 8 -1 6 -3z m-212 -61 c17
-19 33 -32 36 -30 2 2 2 -21 -1 -52 -5 -58 -19 -80 -75 -117 -27 -17 -78 -23
-91 -9 -4 4 -13 7 -19 7 -19 0 -64 98 -69 148 -4 32 -1 44 7 41 7 -3 25 10 41
28 28 33 30 34 84 26 45 -6 61 -13 87 -42z m-2177 25 c0 -5 -12 -17 -27 -26
l-28 -18 24 27 c26 28 31 31 31 17z m1169 -116 c0 -5 -4 -3 -9 5 -5 8 -9 22
-9 30 0 16 17 -16 18 -35z m3551 7 c22 -12 44 -35 57 -62 24 -45 23 -70 -4
-123 l-14 -27 -22 24 c-78 85 -152 170 -155 177 -5 12 36 28 73 28 17 1 46 -7
65 -17z m-160 -31 c0 -5 30 -41 66 -80 36 -39 74 -82 85 -95 19 -24 19 -24 -4
-39 -39 -25 -120 -5 -161 41 -37 39 -39 61 -14 145 10 33 28 51 28 28z m-3341
-76 c0 -5 -8 6 -19 25 -11 19 -19 40 -19 45 0 6 8 -6 19 -25 11 -19 19 -39 19
-45z m-1516 -10 c-33 -52 -43 -56 -43 -16 0 21 10 37 32 56 42 36 47 17 11
-40z m118 51 c-8 -10 -9 -25 -3 -48 8 -31 13 -34 88 -56 79 -22 74 -23 -53 -5
-55 7 -58 -12 -7 -57 20 -17 34 -34 31 -36 -3 -3 -23 11 -46 31 -37 34 -42 36
-75 27 -25 -7 -40 -7 -52 3 -16 11 -16 14 7 46 14 19 31 46 38 60 7 14 27 30
44 36 18 5 34 11 36 12 2 0 -2 -5 -8 -13z m3606 -108 c-3 -8 -6 -5 -6 6 -1 11
2 17 5 13 3 -3 4 -12 1 -19z m1530 -60 c34 -32 53 -71 53 -110 0 -115 -149
-185 -234 -110 -15 12 -31 22 -36 22 -6 0 -10 3 -10 8 -1 4 -5 27 -9 51 -7 37
-5 51 16 91 32 61 70 81 142 76 38 -4 61 -12 78 -28z m-5244 -13 c-3 -9 -8
-14 -10 -11 -3 3 -2 9 2 15 9 16 15 13 8 -4z m464 9 c-3 -3 -12 -4 -19 -1 -8
3 -5 6 6 6 11 1 17 -2 13 -5z m1270 -228 c38 -5 48 -2 71 19 15 14 31 25 37
25 5 0 -5 -14 -22 -30 -27 -24 -33 -37 -33 -69 0 -46 -31 -83 -64 -77 -51 10
-75 19 -71 26 3 5 1 20 -5 34 -7 18 -17 26 -34 26 -14 0 -27 4 -30 9 -4 5 11
7 33 4 63 -9 64 22 2 145 -27 55 -47 103 -43 106 3 4 31 -42 61 -103 l54 -109
44 -6z m2751 188 c-9 -9 -22 -14 -30 -11 -8 3 -4 8 12 15 35 15 37 14 18 -4z
m-4277 -31 c13 -16 12 -17 -3 -4 -10 7 -18 15 -18 17 0 8 8 3 21 -13z m4219
13 c0 -2 -7 -7 -16 -10 -8 -3 -12 -2 -9 4 6 10 25 14 25 6z m-340 -31 c39 -20
80 -59 80 -76 0 -36 -24 -94 -47 -115 -29 -27 -92 -32 -131 -11 -27 16 -52 60
-52 94 0 19 22 76 36 91 2 3 73 30 82 32 2 0 16 -7 32 -15z m-4123 -47 c-3 -8
-6 -5 -6 6 -1 11 2 17 5 13 3 -3 4 -12 1 -19z m4300 16 c-3 -3 -12 -4 -19 -1
-8 3 -5 6 6 6 11 1 17 -2 13 -5z m-541 -44 c44 -19 94 -61 94 -79 0 -6 -231
-79 -309 -98 -23 -6 -24 -5 -17 40 6 38 4 47 -11 57 -16 10 -16 10 3 5 15 -4
32 5 61 33 25 24 57 42 84 49 24 6 45 11 46 12 1 0 23 -8 49 -19z m-3769 -32
c-3 -8 -6 -5 -6 6 -1 11 2 17 5 13 3 -3 4 -12 1 -19z m3886 -101 c7 -18 -3
-68 -18 -89 -6 -10 -38 -41 -70 -69 -52 -45 -63 -51 -94 -46 -64 8 -126 44
-145 84 -9 19 -16 37 -14 38 2 1 50 16 108 34 58 17 123 38 145 46 51 18 81
19 88 2z m848 -178 c-5 -13 -10 -19 -10 -12 -1 15 10 45 15 40 3 -2 0 -15 -5
-28z m-3251 -29 c-24 -15 -36 -11 -14 4 10 8 21 12 24 10 2 -3 -2 -9 -10 -14z
m-1581 -64 c-7 -31 -14 -54 -16 -52 -3 2 1 30 7 61 6 31 14 55 16 52 2 -2 -1
-29 -7 -61z m3981 39 c13 -14 21 -25 18 -25 -2 0 -15 11 -28 25 -13 14 -21 25
-18 25 2 0 15 -11 28 -25z m143 -142 c49 -56 25 -36 -48 39 -39 40 -50 54 -25
33 25 -22 58 -55 73 -72z m-466 35 c-3 -8 -6 -5 -6 6 -1 11 2 17 5 13 3 -3 4
-12 1 -19z m1084 -71 c-10 -9 -11 -8 -5 6 3 10 9 15 12 12 3 -3 0 -11 -7 -18z
m-5101 -30 c13 -7 35 -28 48 -47 32 -47 28 -137 -8 -175 -105 -111 -284 -22
-256 128 6 34 38 76 71 95 27 15 114 15 145 -1z m4635 -95 c-3 -3 -11 0 -18 7
-9 10 -8 11 6 5 10 -3 15 -9 12 -12z m149 -149 c9 -21 3 -16 -49 39 l-50 52
46 -39 c26 -22 49 -46 53 -52z m-3041 17 c18 -17 24 -28 15 -24 -10 3 -18 10
-18 14 0 5 -9 12 -20 15 -11 3 -20 11 -20 16 0 15 10 10 43 -21z m-1491 -17
c-3 -16 -7 -22 -10 -15 -4 13 4 42 11 42 2 0 2 -12 -1 -27z m1674 -113 c13 -8
24 -19 24 -23 0 -10 -28 5 -56 30 -20 18 -35 29 -86 61 -16 9 -28 21 -28 25 0
4 27 -12 61 -35 34 -24 72 -50 85 -58z m2899 70 c10 -11 16 -20 13 -20 -3 0
-13 9 -23 20 -10 11 -16 20 -13 20 3 0 13 -9 23 -20z m-4589 -32 c-4 -13 -11
-45 -17 -73 -12 -52 -29 -83 -29 -52 0 34 33 147 42 147 6 0 8 -10 4 -22z
m4755 -31 c24 -18 40 -53 37 -84 -2 -26 -5 -28 -41 -28 -34 0 -41 5 -58 35
-23 45 -24 77 -1 83 30 8 47 7 63 -6z m-3484 -29 c-3 -8 -6 -5 -6 6 -1 11 2
17 5 13 3 -3 4 -12 1 -19z m3391 -55 c13 -42 9 -51 -13 -33 -16 13 -21 70 -7
70 5 0 14 -17 20 -37z m-3938 12 c-7 -8 -18 -15 -24 -15 -6 0 -2 7 8 15 25 19
32 19 16 0z m557 -32 c-3 -10 -5 -2 -5 17 0 19 2 27 5 18 2 -10 2 -26 0 -35z
m515 17 c21 -14 38 -29 38 -33 0 -5 -20 6 -45 24 -25 18 -45 34 -45 37 0 6 10
0 52 -28z m-800 -206 c-3 -74 -1 -86 12 -81 10 4 13 1 10 -7 -3 -8 5 -16 20
-20 27 -7 56 1 56 15 0 5 7 9 16 9 8 0 12 -4 9 -10 -3 -5 1 -10 9 -10 9 0 16
-4 16 -9 0 -6 -8 -9 -18 -8 -26 2 -112 -24 -112 -34 0 -5 -7 -9 -15 -9 -8 0
-13 -6 -11 -12 1 -7 1 -10 -1 -5 -3 4 -11 7 -19 7 -9 0 -12 5 -8 12 5 8 1 9
-14 5 -26 -8 -62 -16 -44 -10 6 3 12 9 12 14 0 5 7 9 15 9 8 0 15 4 15 9 0 5
3 18 7 28 3 10 3 15 -2 11 -4 -4 -30 5 -58 19 -28 15 -45 29 -39 31 6 2 24 -6
39 -17 15 -11 44 -23 64 -26 l36 -7 -8 54 c-12 83 -11 128 4 128 9 0 11 -22 9
-86z m-1085 4 c-3 -7 -5 -2 -5 12 0 14 2 19 5 13 2 -7 2 -19 0 -25z m4383 28
c0 -7 -62 -36 -74 -36 -6 1 5 9 24 20 35 19 50 24 50 16z m-3920 -30 c0 -2 -7
-7 -16 -10 -8 -3 -12 -2 -9 4 6 10 25 14 25 6z m704 -11 c-4 -8 -8 -15 -10
-15 -2 0 -4 7 -4 15 0 8 4 15 10 15 5 0 7 -7 4 -15z m-247 -31 c2 -10 0 -14
-3 -7 -3 7 -12 9 -20 6 -14 -5 -19 8 -7 21 11 11 28 1 30 -20z m223 -4 c0 -5
-5 -10 -11 -10 -5 0 -7 5 -4 10 3 6 8 10 11 10 2 0 4 -4 4 -10z m3027 -26
c-27 -14 -54 -23 -60 -21 -14 4 70 46 93 46 8 0 -7 -11 -33 -25z m1158 6 c3
-5 1 -10 -4 -10 -6 0 -11 5 -11 10 0 6 2 10 4 10 3 0 8 -4 11 -10z m-4448 -62
c-3 -7 -5 -2 -5 12 0 14 2 19 5 13 2 -7 2 -19 0 -25z m-587 18 c0 -3 -4 -8
-10 -11 -5 -3 -10 -1 -10 4 0 6 5 11 10 11 6 0 10 -2 10 -4z m4397 -28 c-3 -8
-6 -5 -6 6 -1 11 2 17 5 13 3 -3 4 -12 1 -19z m-3721 -63 c-4 -11 1 -15 17
-15 28 0 82 -49 69 -62 -12 -12 -82 13 -121 43 -37 29 -39 38 -7 32 13 -3 27
0 30 6 10 16 19 13 12 -4z m4871 -27 c13 -14 29 -44 34 -67 8 -36 6 -46 -17
-80 -23 -36 -65 -61 -100 -61 -18 0 -55 214 -40 238 10 17 97 -4 123 -30z
m-4723 -40 c-3 -5 -10 -6 -15 -2 -5 3 -7 10 -4 15 4 5 1 9 -4 9 -6 0 -11 8
-11 18 0 14 4 12 19 -8 11 -13 17 -28 15 -32z m4581 -84 c4 -38 3 -64 -3 -64
-5 0 -21 18 -36 40 -22 34 -25 47 -19 82 3 24 13 48 22 55 18 13 24 -5 36
-113z m-5726 90 c104 -87 9 -248 -114 -192 -24 11 -25 15 -25 99 0 79 2 89 22
103 34 24 82 20 117 -10z m-172 -106 c-3 -8 -6 -5 -6 6 -1 11 2 17 5 13 3 -3
4 -12 1 -19z m5693 -27 c0 -11 -89 -45 -97 -37 -3 3 7 10 23 16 16 6 38 14 49
19 26 12 25 12 25 2z m-4073 -33 c-3 -8 -6 -5 -6 6 -1 11 2 17 5 13 3 -3 4
-12 1 -19z m3170 -20 c-3 -8 -6 -5 -6 6 -1 11 2 17 5 13 3 -3 4 -12 1 -19z
m763 -6 c0 -9 -59 -32 -81 -31 -8 0 6 8 31 19 25 10 46 18 48 19 1 1 2 -3 2
-7z m-5075 -182 c3 -5 1 -10 -4 -10 -6 0 -11 5 -11 10 0 6 2 10 4 10 3 0 8 -4
11 -10z m3900 -18 c-3 -3 -11 0 -18 7 -9 10 -8 11 6 5 10 -3 15 -9 12 -12z
m696 3 c-18 -8 -36 -15 -40 -15 -13 1 45 29 59 29 8 0 0 -6 -19 -14z m-56 -23
c-13 -11 -65 -33 -65 -27 0 2 12 11 28 19 30 17 52 21 37 8z m-4777 -67 c-3
-3 -9 2 -12 12 -6 14 -5 15 5 6 7 -7 10 -15 7 -18z m4494 -2 c59 -46 58 -107
-2 -161 -77 -71 -183 15 -154 124 5 20 33 39 79 55 34 12 41 10 77 -18z
m-2572 -102 c0 -14 -34 -71 -42 -71 -4 0 -5 -6 -2 -13 7 -18 -94 -165 -175
-253 -16 -17 -37 -44 -47 -60 -23 -37 -111 -142 -144 -171 -25 -22 -29 -22
-327 -23 -167 0 -303 3 -303 6 0 8 133 162 141 163 3 1 23 -12 44 -29 61 -49
120 -40 191 26 70 65 78 143 22 222 -34 49 -39 37 55 145 l59 67 264 0 c154 0
264 -4 264 -9z m2227 -28 c16 -21 107 -154 202 -296 113 -169 167 -259 159
-262 -7 -3 -593 -4 -1303 -3 l-1290 3 36 35 c20 19 49 58 65 85 16 28 34 55
40 60 7 6 24 32 38 59 26 50 77 96 105 96 9 0 25 -18 35 -40 29 -61 48 -73
104 -68 27 3 64 13 83 22 19 10 55 26 81 36 40 17 48 17 58 5 7 -8 10 -22 6
-30 -3 -9 -2 -14 3 -11 5 3 14 0 20 -8 17 -20 67 -27 97 -14 20 10 30 8 55 -6
34 -20 89 -16 109 9 7 8 16 13 20 10 4 -2 5 6 3 19 -7 35 21 56 71 54 24 0 47
2 53 5 6 4 17 -11 26 -33 18 -46 53 -65 105 -56 18 2 48 -2 67 -10 19 -8 45
-14 59 -14 31 0 65 28 71 59 2 13 7 26 9 29 3 2 32 0 65 -6 60 -11 101 -5 148
19 22 12 93 142 93 172 0 9 5 19 10 22 6 3 10 23 10 44 0 21 3 41 7 44 3 4
106 7 229 7 l222 0 29 -37z m-3503 -79 c3 -8 2 -12 -4 -9 -6 3 -10 10 -10 16
0 14 7 11 14 -7z m-455 -344 c0 -8 -6 0 -14 19 -8 18 -15 36 -15 40 1 13 29
-45 29 -59z m1236 -186 c-11 -9 -45 -28 -75 -43 -51 -24 -65 -26 -190 -26
-127 0 -138 2 -197 29 -120 55 -116 56 198 56 261 -1 282 -2 264 -16z m3093
-26 l-3 -43 -1352 -3 c-744 -1 -1353 1 -1353 5 0 4 17 24 37 45 l37 38 1319 0
1318 0 -3 -42z m655 27 c-3 -9 -8 -14 -10 -11 -3 3 -2 9 2 15 9 16 15 13 8 -4z
m-4780 -106 c15 -16 25 -35 21 -41 -4 -5 -2 -13 4 -17 16 -10 -9 -78 -35 -96
-24 -17 -19 -21 -87 79 -42 61 -46 72 -36 91 10 19 19 22 58 19 37 -3 53 -11
75 -35z m2097 -6 c0 -19 -37 -43 -65 -43 -31 0 -72 30 -58 43 8 9 123 9 123 0z
m1197 -35 c-3 -7 -5 -2 -5 12 0 14 2 19 5 13 2 -7 2 -19 0 -25z m334 -5 c-12
-20 -14 -14 -5 12 4 9 9 14 11 11 3 -2 0 -13 -6 -23z m-3770 -20 c13 -21 33
-55 46 -75 l22 -38 -24 0 c-12 0 -37 13 -54 29 -26 24 -31 36 -31 75 0 25 4
46 9 46 5 0 19 -17 32 -37z m4456 -45 c-3 -8 -6 -5 -6 6 -1 11 2 17 5 13 3 -3
4 -12 1 -19z m-730 -20 c-3 -8 -6 -5 -6 6 -1 11 2 17 5 13 3 -3 4 -12 1 -19z
m-2127 -34 c0 -2 -13 2 -30 11 -16 9 -30 18 -30 21 0 2 14 -2 30 -11 17 -9 30
-18 30 -21z m880 -62 c0 -5 -7 -17 -16 -28 -8 -10 -14 -14 -11 -9 2 6 7 18 10
28 7 17 17 23 17 9z m-2129 -69 c13 -16 12 -17 -3 -4 -10 7 -18 15 -18 17 0 8
8 3 21 -13z m1664 -55 c12 -12 9 -11 -58 17 -26 11 -47 23 -47 27 0 8 91 -30
105 -44z m1565 -12 c8 0 20 -8 25 -17 6 -9 18 -28 28 -41 10 -14 20 -48 24
-75 4 -42 1 -56 -20 -89 -37 -60 -71 -79 -142 -80 -58 -1 -61 1 -102 42 -64
66 -70 142 -17 212 38 49 94 72 147 60 23 -6 49 -11 57 -12z m1104 13 c21 -5
63 -38 118 -93 21 -22 38 -34 38 -28 0 7 7 12 15 12 9 0 15 -9 15 -21 0 -13
-5 -19 -12 -16 -10 3 -14 -14 -16 -60 -7 -135 -112 -242 -239 -243 -48 0 -133
26 -133 41 0 3 61 40 135 83 74 43 135 84 135 92 0 23 -22 16 -95 -29 -39 -23
-101 -60 -138 -80 l-68 -38 -29 24 c-16 14 -27 27 -24 29 2 3 -2 26 -10 51
-10 34 -11 59 -5 89 12 57 29 98 40 98 5 0 70 -13 144 -30 153 -34 165 -35
165 -17 0 10 -42 23 -132 42 -73 15 -137 30 -141 32 -10 6 16 30 58 56 28 16
113 19 179 6z m-2321 -43 c34 -14 67 -54 67 -81 0 -8 4 -15 10 -15 5 0 -2 -22
-17 -49 -22 -43 -30 -50 -64 -56 -83 -14 -130 22 -134 100 -1 33 4 48 19 62
16 14 66 45 84 52 1 1 17 -5 35 -13z m2477 -44 c0 -7 -4 -10 -10 -7 -5 3 -10
16 -10 28 0 18 2 19 10 7 5 -8 10 -21 10 -28z m55 -2 c-3 -5 -10 -10 -16 -10
-5 0 -9 5 -9 10 0 6 7 10 16 10 8 0 12 -4 9 -10z m-2018 -66 c-3 -3 -12 -4
-19 -1 -8 3 -5 6 6 6 11 1 17 -2 13 -5z m50 0 c-3 -3 -12 -4 -19 -1 -8 3 -5 6
6 6 11 1 17 -2 13 -5z m961 -61 c-10 -2 -28 -2 -40 0 -13 2 -5 4 17 4 22 1 32
-1 23 -4z m150 0 c-10 -2 -26 -2 -35 0 -10 3 -2 5 17 5 19 0 27 -2 18 -5z
m145 -10 c-7 -2 -19 -2 -25 0 -7 3 -2 5 12 5 14 0 19 -2 13 -5z m-2743 -98 c0
-5 -5 -3 -10 5 -5 8 -10 20 -10 25 0 6 5 3 10 -5 5 -8 10 -19 10 -25z m-941
-91 c17 -25 31 -47 31 -50 0 -7 53 -77 65 -86 5 -4 15 -1 21 7 16 21 26 19 19
-5 -5 -16 6 -25 72 -57 43 -20 80 -39 82 -40 3 -2 -3 -11 -12 -20 -16 -16 -17
-16 -17 1 0 12 -5 16 -15 12 -8 -3 -21 1 -29 9 -8 8 -22 15 -30 15 -9 0 -16 5
-16 10 0 6 -9 10 -20 10 -11 0 -20 4 -20 10 0 5 -6 7 -13 4 -14 -5 -48 30 -88
91 -14 22 -38 58 -52 81 -27 40 -36 71 -18 59 6 -3 24 -26 40 -51z m256 36 c3
-5 2 -10 -2 -10 -5 0 -17 -17 -28 -37 -11 -21 -28 -47 -37 -57 -10 -11 -18
-23 -18 -28 0 -4 -4 -8 -10 -8 -12 0 -14 27 -2 32 12 5 59 72 66 96 8 23 21
29 31 12z m3560 0 c-3 -5 -12 -10 -18 -10 -7 0 -6 4 3 10 19 12 23 12 15 0z
m-939 -72 c-9 -12 -16 -19 -16 -15 0 11 24 47 28 42 2 -2 -3 -14 -12 -27z
m-2316 -36 c0 -5 11 -15 24 -22 14 -7 27 -19 30 -27 4 -10 -3 -8 -22 6 -37 26
-58 51 -43 51 6 0 11 -4 11 -8z m448 -63 c-3 -8 -7 -3 -11 10 -4 17 -3 21 5
13 5 -5 8 -16 6 -23z m1237 -80 c49 -61 49 -60 34 -54 -15 7 -97 103 -112 133
-10 17 41 -34 78 -79z m-797 21 c-7 -11 -17 -20 -22 -20 -5 0 -1 9 9 20 10 11
20 20 22 20 2 0 -2 -9 -9 -20z m888 -126 c16 -20 33 -44 38 -53 8 -14 7 -14
-8 -2 -26 22 -79 91 -69 91 5 0 23 -16 39 -36z m-1129 -96 c18 -7 33 -17 33
-23 0 -15 -41 -138 -49 -148 -6 -6 -51 151 -51 176 0 11 29 9 67 -5z m-81
-156 c21 -100 19 -106 -32 -83 -75 34 -105 107 -74 177 8 18 25 39 39 47 26
16 26 16 39 -26 7 -23 19 -75 28 -115z m156 42 c8 -7 -25 -81 -45 -101 -12
-12 -11 -2 5 46 19 58 27 69 40 55z m1458 -4 c-8 -5 -19 -10 -25 -10 -5 0 -3
5 5 10 8 5 20 10 25 10 6 0 3 -5 -5 -10z m-120 -70 c0 -75 -15 -78 -52 -11
-33 58 -33 58 -10 64 57 15 62 11 62 -53z m-927 43 c-7 -2 -21 -2 -30 0 -10 3
-4 5 12 5 17 0 24 -2 18 -5z m977 -58 c0 -11 -5 -27 -10 -35 -7 -11 -10 -1
-10 35 0 36 3 46 10 35 5 -8 10 -24 10 -35z m-312 18 c-10 -2 -28 -2 -40 0
-13 2 -5 4 17 4 22 1 32 -1 23 -4z m188 -43 c15 -22 24 -43 21 -47 -9 -8 -47
27 -47 43 0 7 -7 20 -16 28 -14 14 -14 16 0 16 9 0 28 -18 42 -40z"/>
<path d="M3159 4309 c-163 -24 -294 -194 -275 -357 22 -183 175 -313 355 -300
124 9 232 84 284 198 30 65 30 197 0 262 -28 62 -101 138 -158 167 -54 27
-140 39 -206 30z m154 -55 c26 -9 69 -36 96 -60 151 -135 116 -381 -67 -471
-75 -37 -184 -39 -250 -4 -55 28 -112 85 -137 136 -29 60 -32 177 -7 236 36
82 104 143 192 170 43 13 124 10 173 -7z"/>
<path d="M3072 4068 c-30 -15 -38 -52 -18 -83 27 -41 86 -28 101 22 4 17 -1
29 -19 48 -28 28 -31 28 -64 13z m48 -47 c0 -27 -19 -36 -37 -18 -18 18 -9 37
18 37 12 0 19 -7 19 -19z"/>
<path d="M3807 4155 c-130 -48 -200 -196 -153 -328 50 -140 222 -204 354 -132
87 47 132 123 132 223 0 171 -174 295 -333 237z m180 -56 c89 -43 135 -159 99
-252 -19 -51 -68 -105 -113 -123 -42 -18 -122 -18 -164 0 -95 40 -152 163
-118 253 46 124 178 179 296 122z"/>
<path d="M3782 3958 c-20 -20 -14 -66 9 -79 33 -17 69 3 69 39 0 33 -16 52
-45 52 -12 0 -26 -5 -33 -12z m48 -38 c0 -5 -7 -10 -15 -10 -8 0 -15 5 -15 10
0 6 7 10 15 10 8 0 15 -4 15 -10z"/>
<path d="M3531 3616 c-10 -11 -10 -20 0 -38 19 -36 70 -96 86 -102 23 -9 51
12 74 55 24 48 19 84 -13 93 -44 11 -135 7 -147 -8z m129 -42 c0 -10 -24 -54
-30 -54 -9 0 -40 45 -40 58 0 4 16 6 35 4 19 -2 35 -6 35 -8z"/>
<path d="M1517 3080 c-3 -11 -1 -20 4 -20 5 0 9 9 9 20 0 11 -2 20 -4 20 -2 0
-6 -9 -9 -20z"/>
</g>
</svg>
